<svg width="258" height="197" viewBox="0 0 258 197" fill="none" xmlns="http://www.w3.org/2000/svg">
<g clip-path="url(#clip0)">
<path opacity="0.1" d="M147.304 31.1543C131.05 30.5889 115.571 25.3396 100.787 19.5952C86.0025 13.8508 71.364 7.48827 55.5001 4.44269C45.2966 2.48518 33.629 2.20877 25.407 7.68176C17.4963 12.9587 14.9398 22.0427 13.5636 30.4809C12.5315 36.8283 11.9237 43.51 14.7565 49.4529C16.7228 53.579 20.2161 57.0467 22.632 60.9969C31.0348 74.7473 25.0956 91.714 15.992 105.13C11.7228 111.43 6.76548 117.443 3.46812 124.142C0.170761 130.842 -1.35361 138.528 1.52938 145.368C4.38977 152.153 11.203 157.239 18.5837 160.82C33.5713 168.107 51.2308 170.175 68.461 171.354C106.588 173.965 144.92 172.834 183.148 171.703C197.296 171.283 211.505 170.859 225.426 168.67C233.153 167.456 241.134 165.527 246.744 160.88C253.866 154.968 255.632 144.956 250.86 137.541C242.854 125.105 220.725 122.017 215.122 108.671C212.04 101.323 215.205 93.1413 219.68 86.3265C229.283 71.7117 245.378 58.8886 246.227 42.1832C246.81 30.7095 239.072 19.2183 227.108 13.788C214.567 8.09889 197.178 8.81506 187.932 18.2332C178.394 27.9203 161.648 31.6569 147.304 31.1543Z" fill="#68F4FF"/>
<path opacity="0.1" d="M145.604 189.509C197.057 189.509 238.768 186.406 238.768 182.579C238.768 178.751 197.057 175.648 145.604 175.648C94.15 175.648 52.4387 178.751 52.4387 182.579C52.4387 186.406 94.15 189.509 145.604 189.509Z" fill="#68F4FF"/>
<path d="M73.5665 160.132C73.5665 160.132 78.8403 159.287 82.0045 163.019C82.0045 163.019 79.6841 164.848 74.6916 162.315L73.5665 160.132Z" fill="#68F4FF"/>
<path d="M72.999 160.064C72.999 160.064 69.6363 164.215 71.2862 168.821C71.2862 168.821 74.0286 167.72 74.3274 162.127L72.999 160.064Z" fill="#68F4FF"/>
<path d="M69.9854 153.236C69.9854 153.236 72.0949 149.366 80.5329 154.784C80.5329 154.784 79.4078 157.388 75.681 157.176C71.9542 156.965 70.9648 155.289 69.9854 153.236Z" fill="#68F4FF"/>
<path d="M69.4354 152.957C69.4354 152.957 65.0582 152.455 64.6338 162.484C64.6338 162.484 67.4088 163.059 69.3802 159.888C71.3516 156.717 70.5379 154.937 69.4354 152.957Z" fill="#68F4FF"/>
<path d="M66.8864 144.961C66.8864 144.961 69.3474 138.136 78.2777 142.991C78.2777 142.991 76.2385 149.253 67.8005 147.283L66.8864 144.961Z" fill="#68F4FF"/>
<path d="M64.1415 134.759C64.1415 134.759 68.7849 127.861 77.012 134.257C77.012 134.257 74.129 140.73 64.8446 137.212L64.1415 134.759Z" fill="#68F4FF"/>
<path d="M63.1571 125.047C63.1571 125.047 68.574 118.715 76.7308 125.047C76.7308 125.047 71.5976 130.606 63.1571 126.665V125.047Z" fill="#68F4FF"/>
<path d="M62.3132 115.619C62.3132 115.619 67.8005 109.005 75.6056 115.267C75.6056 115.267 69.4177 121.107 62.3132 117.167V115.619Z" fill="#68F4FF"/>
<path d="M62.8055 107.246C62.8055 107.246 68.5816 98.7299 75.887 104.502C75.887 104.502 69.6991 111.819 62.8055 108.864V107.246Z" fill="#68F4FF"/>
<path d="M64.1415 97.4634C64.1415 97.4634 70.2616 89.0203 77.3636 95.4934C77.3636 95.4934 70.1209 102.813 64.1415 99.0113V97.4634Z" fill="#68F4FF"/>
<path d="M66.1831 88.7213C66.1831 88.7213 73.4258 80.7882 79.7442 83.9468C79.7442 83.9468 72.1952 92.3724 65.8667 90.8245L66.1831 88.7213Z" fill="#68F4FF"/>
<path d="M68.7146 80.4364C68.7146 80.4364 77.0823 70.7267 81.9342 73.9633C81.9342 73.9633 75.7764 81.5018 68.1219 82.2557L68.7146 80.4364Z" fill="#68F4FF"/>
<path d="M72.3685 70.8247C72.3685 70.8247 79.684 62.8891 85.0281 64.8592C85.0281 64.8592 78.7699 73.0913 71.3866 73.3024L72.3685 70.8247Z" fill="#68F4FF"/>
<path d="M75.676 61.8337C75.676 61.8337 83.7625 54.2324 87.2783 55.5692C87.2783 55.5692 81.442 64.0149 75.3245 63.5224L75.676 61.8337Z" fill="#68F4FF"/>
<path d="M78.9106 53.5186C78.9106 53.5186 85.872 44.4422 89.6691 45.1458C89.6691 45.1458 85.4501 53.2372 78.9106 54.4434V53.5186Z" fill="#68F4FF"/>
<path d="M82.4214 42.3365C82.4214 42.3365 88.5741 35.3759 91.8966 35.3935C91.8966 35.3935 87.0397 44.691 82.1677 44.6056L82.4214 42.3365Z" fill="#68F4FF"/>
<path d="M84.5008 34.8835L90.4425 20.3868C90.4425 20.3868 90.7414 33.4914 83.7449 37.5722L84.5008 34.8835Z" fill="#68F4FF"/>
<path d="M86.9142 18.8966C86.9142 18.8966 87.8986 6.79473 87.2657 5.80969C87.2657 5.80969 91.5149 15.8611 86.8715 24.244L86.9142 18.8966Z" fill="#68F4FF"/>
<path d="M66.6553 144.798C66.6553 144.798 60.4926 140.976 56.5021 150.326C56.5021 150.326 61.9868 153.967 67.3786 147.183L66.6553 144.798Z" fill="#68F4FF"/>
<path d="M63.9582 134.37C63.9582 134.37 56.3991 130.919 52.7301 140.682C52.7301 140.682 58.5714 144.702 64.6463 136.837L63.9582 134.37Z" fill="#68F4FF"/>
<path d="M62.8055 125.638C62.8055 125.638 57.3911 119.305 49.2444 125.638C49.2444 125.638 54.3775 131.196 62.8055 127.256V125.638Z" fill="#68F4FF"/>
<path d="M62.1299 115.619C62.1299 115.619 56.6452 109.005 48.8375 115.267C48.8375 115.267 55.0279 121.107 62.1299 117.167V115.619Z" fill="#68F4FF"/>
<path d="M62.8055 107.487C62.8055 107.487 58.9581 97.9385 50.5955 102.052C50.5955 102.052 55.1158 110.508 62.4665 109.068L62.8055 107.487Z" fill="#68F4FF"/>
<path d="M64.6263 97.4156C64.6263 97.4156 60.804 87.7135 52.3208 92.214C52.3208 92.214 57.5142 101.107 64.2496 98.9158L64.6263 97.4156Z" fill="#68F4FF"/>
<path d="M66.9969 88.7715C66.9969 88.7715 65.4901 78.1346 58.4584 77.1823C58.4584 77.1823 59.9476 88.3996 66.0476 90.6888L66.9969 88.7715Z" fill="#68F4FF"/>
<path d="M68.8929 80.4539C68.8929 80.4539 68.3053 67.6384 62.4916 67.1936C62.4916 67.1936 62.6875 76.9209 68.2375 82.2707L68.8929 80.4539Z" fill="#68F4FF"/>
<path d="M72.9713 70.4579C72.9713 70.4579 71.236 59.8009 65.6885 58.4967C65.6885 58.4967 66.3766 68.8195 72.4238 73.0712L72.9713 70.4579Z" fill="#68F4FF"/>
<path d="M76.3339 61.9091C76.3339 61.9091 76.2737 50.8099 72.8859 49.1765C72.8859 49.1765 70.7814 59.2279 75.352 63.3264L76.3339 61.9091Z" fill="#68F4FF"/>
<path d="M79.1692 53.4056C79.1692 53.4056 78.6946 41.9746 75.1837 40.3639C75.1837 40.3639 73.9808 49.4102 78.6418 54.1544L79.1692 53.4056Z" fill="#68F4FF"/>
<path d="M82.9111 43.2462C82.9111 43.2462 82.8885 33.9487 80.3848 31.77C80.3848 31.77 77.891 41.9546 81.6028 45.1183L82.9111 43.2462Z" fill="#68F4FF"/>
<path d="M84.2044 34.4211L81.7684 18.9445C81.7684 18.9445 78.456 31.6243 84.3224 37.2104L84.2044 34.4211Z" fill="#68F4FF"/>
<path d="M84.6816 19.0448C84.6816 19.0448 78.4234 8.64163 78.5515 7.48572C78.5515 7.48572 79.217 18.389 87.09 23.8193L84.6816 19.0448Z" fill="#68F4FF"/>
<path d="M85.4148 15.9717C85.4148 15.9717 79.5082 1.19614 76.8362 -0.00500488C76.8362 -0.00500488 85.2742 4.28694 85.9071 15.5445L85.4148 15.9717Z" fill="#68F4FF"/>
<path d="M82.1351 44.6936L81.7333 44.5679C86.7182 28.3048 87.9613 17.9317 85.234 15.3334L85.5254 15.0269C88.4159 17.7709 87.2431 28.0284 82.1351 44.6936Z" fill="#444053"/>
<path d="M68.4107 82.7659L67.813 82.5548C68.3404 81.0646 68.9129 79.5519 69.5106 78.0618C74.7141 65.0779 79.1415 53.0162 81.9818 43.7463L82.5017 43.495C79.6564 52.7649 75.3068 65.304 70.0983 78.298C69.5031 79.7806 68.9355 81.2833 68.4107 82.7659Z" fill="#444053"/>
<path d="M80.9874 172.306C80.907 172.216 72.8256 163.114 67.1952 147.57C63.8934 138.471 62.054 128.907 61.7457 119.232C61.3614 107.138 63.8953 93.6313 68.2424 81.3661L68.7146 81.9189C58.9606 109.45 62.8356 133.043 67.9762 147.248C73.5488 162.649 81.5373 171.653 81.6152 171.743L80.9874 172.306Z" fill="#444053"/>
<path d="M45.7762 170.321C45.7762 170.321 36.2206 169.746 37.3482 176.445C37.3482 176.445 37.1247 177.628 38.197 178.166C38.197 178.166 38.2121 177.664 39.1765 177.837C39.519 177.895 39.8671 177.912 40.2136 177.887C40.6827 177.856 41.1287 177.672 41.4844 177.365C41.4844 177.365 44.169 176.254 45.2137 171.861C45.2137 171.861 45.9872 170.904 45.9545 170.658L44.3422 171.346C44.3422 171.346 44.8947 172.51 44.4603 173.477C44.4603 173.477 44.4075 171.389 44.0986 171.437C44.0359 171.437 43.2599 171.841 43.2599 171.841C43.2599 171.841 44.2091 173.869 43.4934 175.342C43.4934 175.342 43.7646 172.844 42.966 171.987L41.8309 172.651C41.8309 172.651 42.9384 174.744 42.1875 176.452C42.1875 176.452 42.3784 173.832 41.5923 172.811L40.5627 173.615C40.5627 173.615 41.6024 175.678 40.9695 177.096C40.9695 177.096 40.8867 174.045 40.3392 173.814C40.3392 173.814 39.4402 174.608 39.302 174.935C39.302 174.935 40.0152 176.442 39.5732 177.224C39.5732 177.224 39.302 175.191 39.071 175.181C39.071 175.181 38.1744 176.528 38.0815 177.443C38.1249 176.59 38.3908 175.763 38.8525 175.045C38.3358 175.143 37.8591 175.39 37.4813 175.756C37.4813 175.756 37.6194 174.804 39.0735 174.721C39.0735 174.721 39.8269 173.698 40.0127 173.636C40.0127 173.636 38.5662 173.515 37.6898 173.904C37.6898 173.904 38.4607 173.007 40.2789 173.402L41.2835 172.573C41.2835 172.573 39.3799 172.321 38.5712 172.6C38.5712 172.6 39.5004 171.806 41.5572 172.384L42.6622 171.723C42.6622 171.723 41.0399 171.374 40.0705 171.5C40.0705 171.5 41.0926 170.949 42.9861 171.545L43.7772 171.191C43.7772 171.191 42.5868 170.957 42.2403 170.919C41.8937 170.881 41.8711 170.786 41.8711 170.786C42.625 170.66 43.3989 170.747 44.1062 171.037C44.1062 171.037 45.8038 170.427 45.7762 170.321Z" fill="#68F4FF"/>
<path d="M18.0011 173.429C18.0011 173.429 8.4581 172.854 9.57563 179.553C9.57563 179.553 9.34961 180.737 10.4219 181.275C10.4219 181.275 10.4395 180.772 11.4039 180.945C11.7463 181.004 12.0946 181.021 12.441 180.996C12.9095 180.965 13.3549 180.781 13.7093 180.473C13.7093 180.473 16.3964 179.362 17.4411 174.97C17.4411 174.97 18.212 174.012 18.1945 173.766L16.5822 174.455C16.5822 174.455 17.1347 175.618 16.7002 176.586C16.7002 176.586 16.6475 174.497 16.3386 174.545C16.2758 174.545 15.4998 174.95 15.4998 174.95C15.4998 174.95 16.4491 176.978 15.7334 178.45C15.7334 178.45 16.0046 175.952 15.2035 175.095L14.0684 175.759C14.0684 175.759 15.1759 177.852 14.425 179.561C14.425 179.561 14.6184 176.94 13.8298 175.92L12.8027 176.724C12.8027 176.724 13.8424 178.787 13.2095 180.204C13.2095 180.204 13.1266 177.154 12.5792 176.922C12.5792 176.922 11.6801 177.716 11.542 178.043C11.542 178.043 12.2552 179.551 11.8132 180.332C11.8132 180.332 11.542 178.299 11.311 178.289C11.311 178.289 10.4169 179.636 10.3215 180.551C10.3664 179.698 10.633 178.872 11.095 178.154C10.5776 178.252 10.1002 178.499 9.72129 178.865C9.72129 178.865 9.86192 177.912 11.316 177.829C11.316 177.829 12.0694 176.807 12.2552 176.746C12.2552 176.746 10.8087 176.623 9.93224 177.013C9.93224 177.013 10.7032 176.116 12.5214 176.51L13.5259 175.681C13.5259 175.681 11.6224 175.43 10.8137 175.709C10.8137 175.709 11.7429 174.915 13.7997 175.493L14.9046 174.832C14.9046 174.832 13.2798 174.482 12.313 174.608C12.313 174.608 13.3351 174.058 15.2286 174.653L16.0197 174.299C16.0197 174.299 14.8293 174.065 14.4802 174.028C14.1312 173.99 14.1136 173.894 14.1136 173.894C14.8675 173.77 15.641 173.857 16.3486 174.146C16.3486 174.146 18.0212 173.535 18.0011 173.429Z" fill="#68F4FF"/>
<path d="M33.4809 180.727C33.4809 180.727 23.9379 180.151 25.0529 186.851C25.0529 186.851 24.8294 188.034 25.9017 188.572C25.9017 188.572 25.9193 188.069 26.8811 188.243C27.2245 188.3 27.5735 188.317 27.9208 188.293C28.389 188.261 28.8341 188.077 29.189 187.77C29.189 187.77 31.8736 186.66 32.9183 182.267C32.9183 182.267 33.6918 181.31 33.6717 181.063L32.0595 181.752C32.0595 181.752 32.6094 182.915 32.1775 183.883C32.1775 183.883 32.1248 181.795 31.8134 181.842C31.7506 181.842 30.9771 182.247 30.9771 182.247C30.9771 182.247 31.9239 184.272 31.2081 185.747C31.2081 185.747 31.4794 183.25 30.6808 182.393L29.5456 183.056C29.5456 183.056 30.6531 185.149 29.9022 186.858C29.9022 186.858 30.0956 184.237 29.3071 183.217L28.2774 184.021C28.2774 184.021 29.3196 186.084 28.6843 187.501C28.6843 187.501 28.6014 184.451 28.0564 184.22C28.0564 184.22 27.1549 185.014 27.0193 185.34C27.0193 185.34 27.7325 186.848 27.288 187.63C27.288 187.63 27.0167 185.597 26.7857 185.587C26.7857 185.587 25.8892 186.933 25.7962 187.848C25.8397 186.995 26.1055 186.169 26.5672 185.451C26.0505 185.549 25.5738 185.796 25.196 186.162C25.196 186.162 25.3342 185.21 26.7907 185.127C26.7907 185.127 27.5291 184.104 27.7274 184.041C27.7274 184.041 26.2809 183.921 25.4045 184.31C25.4045 184.31 26.178 183.413 27.9936 183.82L28.9982 182.991C28.9982 182.991 27.0946 182.74 26.286 183.018C26.286 183.018 27.2177 182.224 29.2719 182.802L30.3794 182.141C30.3794 182.141 28.7646 181.8 27.7953 181.925C27.7953 181.925 28.8148 181.375 30.7109 181.971L31.4994 181.616C31.4994 181.616 30.3116 181.383 29.9625 181.345C29.6134 181.307 29.5959 181.212 29.5959 181.212C30.3498 181.086 31.1237 181.173 31.8309 181.463C31.8309 181.463 33.5085 180.832 33.4809 180.727Z" fill="#68F4FF"/>
<path opacity="0.1" d="M26.0323 190.419C29.7673 190.419 32.7952 189.907 32.7952 189.276C32.7952 188.644 29.7673 188.132 26.0323 188.132C22.2972 188.132 19.2693 188.644 19.2693 189.276C19.2693 189.907 22.2972 190.419 26.0323 190.419Z" fill="#68F4FF"/>
<path opacity="0.1" d="M240.544 190.419C244.279 190.419 247.307 189.907 247.307 189.276C247.307 188.644 244.279 188.132 240.544 188.132C236.809 188.132 233.781 188.644 233.781 189.276C233.781 189.907 236.809 190.419 240.544 190.419Z" fill="#68F4FF"/>
<path opacity="0.1" d="M175.78 197C179.515 197 182.543 196.488 182.543 195.857C182.543 195.225 179.515 194.713 175.78 194.713C172.044 194.713 169.017 195.225 169.017 195.857C169.017 196.488 172.044 197 175.78 197Z" fill="#68F4FF"/>
<path opacity="0.1" d="M251.24 180.508C254.975 180.508 258.003 179.996 258.003 179.365C258.003 178.733 254.975 178.221 251.24 178.221C247.504 178.221 244.477 178.733 244.477 179.365C244.477 179.996 247.504 180.508 251.24 180.508Z" fill="#68F4FF"/>
<path opacity="0.1" d="M39.1941 179.795C42.9292 179.795 45.9571 179.283 45.9571 178.651C45.9571 178.02 42.9292 177.508 39.1941 177.508C35.459 177.508 32.4312 178.02 32.4312 178.651C32.4312 179.283 35.459 179.795 39.1941 179.795Z" fill="#68F4FF"/>
<path opacity="0.1" d="M11.4114 183.003C15.1465 183.003 18.1744 182.492 18.1744 181.86C18.1744 181.229 15.1465 180.717 11.4114 180.717C7.67632 180.717 4.64844 181.229 4.64844 181.86C4.64844 182.492 7.67632 183.003 11.4114 183.003Z" fill="#68F4FF"/>
<path d="M181.892 20.0375H78.4887C77.1295 20.0375 76.0276 21.14 76.0276 22.5001V178.744C76.0276 180.104 77.1295 181.207 78.4887 181.207H181.892C183.251 181.207 184.353 180.104 184.353 178.744V22.5001C184.353 21.14 183.251 20.0375 181.892 20.0375Z" fill="#172642"/>
<path opacity="0.1" d="M168.444 33.8907H93.2778C89.2265 33.8907 85.9423 37.177 85.9423 41.2308V58.2353C85.9423 62.289 89.2265 65.5753 93.2778 65.5753H168.444C172.495 65.5753 175.78 62.289 175.78 58.2353V41.2308C175.78 37.177 172.495 33.8907 168.444 33.8907Z" fill="white"/>
<path d="M172.434 34.5089H89.0813C87.6666 34.5089 86.5198 35.6565 86.5198 37.072V62.59C86.5198 64.0056 87.6666 65.1531 89.0813 65.1531H172.434C173.849 65.1531 174.996 64.0056 174.996 62.59V37.072C174.996 35.6565 173.849 34.5089 172.434 34.5089Z" fill="#E6E8EC"/>
<path opacity="0.1" d="M104.227 78.7728H91.7811C90.2846 78.7728 89.0714 79.9867 89.0714 81.4842V95.923C89.0714 97.4205 90.2846 98.6344 91.7811 98.6344H104.227C105.724 98.6344 106.937 97.4205 106.937 95.923V81.4842C106.937 79.9867 105.724 78.7728 104.227 78.7728Z" fill="white"/>
<path opacity="0.1" d="M126.063 78.7728H113.617C112.12 78.7728 110.907 79.9867 110.907 81.4842V95.923C110.907 97.4205 112.12 98.6344 113.617 98.6344H126.063C127.56 98.6344 128.773 97.4205 128.773 95.923V81.4842C128.773 79.9867 127.56 78.7728 126.063 78.7728Z" fill="white"/>
<path opacity="0.1" d="M147.899 78.7728H135.453C133.956 78.7728 132.743 79.9867 132.743 81.4842V95.923C132.743 97.4205 133.956 98.6344 135.453 98.6344H147.899C149.395 98.6344 150.609 97.4205 150.609 95.923V81.4842C150.609 79.9867 149.395 78.7728 147.899 78.7728Z" fill="white"/>
<path opacity="0.1" d="M165.202 79.1951H161.822C157.822 79.1951 154.579 82.4397 154.579 86.4421V91.8096C154.579 95.812 157.822 99.0566 161.822 99.0566H165.202C169.202 99.0566 172.444 95.812 172.444 91.8096V86.4421C172.444 82.4397 169.202 79.1951 165.202 79.1951Z" fill="white"/>
<path d="M169.735 78.7728H157.289C155.792 78.7728 154.579 79.9867 154.579 81.4842V95.923C154.579 97.4205 155.792 98.6344 157.289 98.6344H169.735C171.231 98.6344 172.444 97.4205 172.444 95.923V81.4842C172.444 79.9867 171.231 78.7728 169.735 78.7728Z" fill="#68F4FF"/>
<path opacity="0.1" d="M104.227 100.622H91.7811C90.2846 100.622 89.0714 101.836 89.0714 103.333V117.772C89.0714 119.27 90.2846 120.484 91.7811 120.484H104.227C105.724 120.484 106.937 119.27 106.937 117.772V103.333C106.937 101.836 105.724 100.622 104.227 100.622Z" fill="white"/>
<path opacity="0.1" d="M126.063 100.622H113.617C112.12 100.622 110.907 101.836 110.907 103.333V117.772C110.907 119.27 112.12 120.484 113.617 120.484H126.063C127.56 120.484 128.773 119.27 128.773 117.772V103.333C128.773 101.836 127.56 100.622 126.063 100.622Z" fill="white"/>
<path opacity="0.1" d="M147.899 100.622H135.453C133.956 100.622 132.743 101.836 132.743 103.333V117.772C132.743 119.27 133.956 120.484 135.453 120.484H147.899C149.395 120.484 150.609 119.27 150.609 117.772V103.333C150.609 101.836 149.395 100.622 147.899 100.622Z" fill="white"/>
<path opacity="0.1" d="M104.227 124.74H91.7811C90.2846 124.74 89.0714 125.954 89.0714 127.452V141.891C89.0714 143.388 90.2846 144.602 91.7811 144.602H104.227C105.724 144.602 106.937 143.388 106.937 141.891V127.452C106.937 125.954 105.724 124.74 104.227 124.74Z" fill="white"/>
<path opacity="0.1" d="M126.063 124.74H113.617C112.12 124.74 110.907 125.954 110.907 127.452V141.891C110.907 143.388 112.12 144.602 113.617 144.602H126.063C127.56 144.602 128.773 143.388 128.773 141.891V127.452C128.773 125.954 127.56 124.74 126.063 124.74Z" fill="white"/>
<path opacity="0.1" d="M147.899 124.74H135.453C133.956 124.74 132.743 125.954 132.743 127.452V141.891C132.743 143.388 133.956 144.602 135.453 144.602H147.899C149.395 144.602 150.609 143.388 150.609 141.891V127.452C150.609 125.954 149.395 124.74 147.899 124.74Z" fill="white"/>
<path opacity="0.1" d="M147.899 148.859H135.453C133.956 148.859 132.743 150.073 132.743 151.57V166.009C132.743 167.506 133.956 168.72 135.453 168.72H147.899C149.395 168.72 150.609 167.506 150.609 166.009V151.57C150.609 150.073 149.395 148.859 147.899 148.859Z" fill="white"/>
<path opacity="0.1" d="M165.202 101.044H161.822C157.822 101.044 154.579 104.289 154.579 108.291V113.659C154.579 117.661 157.822 120.906 161.822 120.906H165.202C169.202 120.906 172.444 117.661 172.444 113.659V108.291C172.444 104.289 169.202 101.044 165.202 101.044Z" fill="white"/>
<path d="M169.607 100.622H157.417C155.849 100.622 154.579 101.893 154.579 103.462V117.644C154.579 119.212 155.849 120.484 157.417 120.484H169.607C171.174 120.484 172.444 119.212 172.444 117.644V103.462C172.444 101.893 171.174 100.622 169.607 100.622Z" fill="#68F4FF"/>
<path opacity="0.2" d="M169.607 100.622H157.417C155.849 100.622 154.579 101.893 154.579 103.462V117.644C154.579 119.212 155.849 120.484 157.417 120.484H169.607C171.174 120.484 172.444 119.212 172.444 117.644V103.462C172.444 101.893 171.174 100.622 169.607 100.622Z" fill="white"/>
<path opacity="0.1" d="M126.251 148.859H91.5928C90.2003 148.859 89.0714 149.988 89.0714 151.382V166.197C89.0714 167.591 90.2003 168.72 91.5928 168.72H126.251C127.644 168.72 128.773 167.591 128.773 166.197V151.382C128.773 149.988 127.644 148.859 126.251 148.859Z" fill="white"/>
<path opacity="0.1" d="M169.514 124.74H155.805C154.187 124.74 152.876 126.052 152.876 127.67V165.793C152.876 167.411 154.187 168.723 155.805 168.723H169.514C171.131 168.723 172.442 167.411 172.442 165.793V127.67C172.442 126.052 171.131 124.74 169.514 124.74Z" fill="white"/>
<path d="M171.023 59.8009H163.203V60.6477H171.023V59.8009Z" fill="#68F4FF"/>
<path d="M159.574 59.8009H151.754V60.6477H159.574V59.8009Z" fill="#68F4FF"/>
<path d="M148.122 59.8009H140.302V60.6477H148.122V59.8009Z" fill="#68F4FF"/>
<path d="M136.673 59.8009H128.853V60.6477H136.673V59.8009Z" fill="#68F4FF"/>
<path d="M220.963 119.245C221.769 116.531 220.963 113.817 220.963 113.817V111.256C220.963 111.256 221.885 106.251 217.771 103.039L215.044 100.632C215.044 100.632 213.515 99.3179 213.07 99.235C212.987 99.2171 212.903 99.2046 212.819 99.1973L212.739 99.1496C212.504 98.7484 212.304 98.3281 212.141 97.8931C212.317 97.916 212.497 97.898 212.665 97.8405C212.834 97.783 212.987 97.6875 213.113 97.5614C213.211 97.448 213.289 97.3178 213.341 97.177C213.499 96.8227 213.527 96.393 213.66 96.016C213.777 95.7104 213.947 95.4279 214.162 95.1818C214.135 95.227 214.105 95.2697 214.08 95.3175C214.466 94.835 214.971 94.4229 215.335 93.9153C215.408 93.8146 215.474 93.7097 215.534 93.6012C215.519 93.6238 215.498 93.6439 215.481 93.6665C215.983 92.8599 216.136 91.8824 216.282 90.9401C216.352 90.6194 216.357 90.2878 216.297 89.9651C216.227 89.7509 216.136 89.5439 216.026 89.3469C215.433 88.1232 215.443 86.5828 214.496 85.6053C213.783 84.8741 212.703 84.6504 211.686 84.5248C210.669 84.3991 209.599 84.3263 208.725 83.7935C208.481 83.6085 208.212 83.4603 207.924 83.3538C207.78 83.3034 207.622 83.3049 207.479 83.3581C207.335 83.4113 207.215 83.5128 207.138 83.6453C207.12 83.7237 207.084 83.7968 207.033 83.8589C206.987 83.8847 206.936 83.8997 206.884 83.9028C206.832 83.9058 206.78 83.8968 206.731 83.8765L205.378 83.5146L205.393 83.5825H205.358L205.408 83.796C205.435 83.7914 205.462 83.7961 205.485 83.8094C205.509 83.8227 205.527 83.8438 205.536 83.8689L205.318 84.2056C204.899 84.198 204.485 84.1128 204.097 83.9544C204.095 83.9761 204.095 83.998 204.097 84.0197H204.077C204.052 84.4016 204.486 84.6504 204.619 85.0098C204.673 85.167 204.673 85.3375 204.619 85.4947C204.565 85.6406 204.479 85.7727 204.368 85.8817C203.889 86.3566 203.273 86.2637 202.721 86.5627C202.673 86.5831 202.63 86.6137 202.596 86.6523C202.561 86.6909 202.535 86.7367 202.52 86.7863C202.498 86.8235 202.492 86.8677 202.502 86.9095C202.524 86.9672 202.564 87.0164 202.615 87.0502C202.776 87.1803 202.953 87.29 203.14 87.3769C203.085 87.4271 203.032 87.4774 202.982 87.5301C202.281 88.2432 201.767 89.1189 201.487 90.0792C201.206 91.0394 201.168 92.0541 201.375 93.0328C201.582 94.0114 202.029 94.9234 202.674 95.6874C203.32 96.4513 204.144 97.0434 205.074 97.4107C205.094 97.5162 205.109 97.6243 205.124 97.7373C205.124 97.7499 205.124 97.7574 205.124 97.77L205.139 97.9158L203.316 98.6922C203.041 98.6901 202.772 98.6099 202.541 98.4608C202.31 98.3118 202.126 98.1001 202.01 97.8504C201.586 96.9734 200.087 97.8504 200.087 97.8504C200.087 97.8504 195.513 97.5087 193.808 98.353C193.808 98.353 191.078 97.2071 190.694 97.1292C190.31 97.0513 189.735 96.7473 189.466 96.8252C189.197 96.9031 188.851 96.3226 188.658 96.3653C188.464 96.408 188.389 95.9834 187.774 95.8301C187.158 95.6768 186.927 95.8703 186.237 95.1818C185.546 94.4932 179.931 91.7794 179.931 91.7794L177.409 89.7038L174.72 87.5628L174.672 87.6508C174.654 87.5879 174.637 87.5226 174.619 87.4522C174.352 86.3857 174.016 85.3374 173.615 84.3137C173.442 83.8991 173.364 83.3764 173.13 83.6528C172.987 83.8187 172.743 83.4543 172.377 83.208C172.299 83.1543 172.21 83.1186 172.117 83.1035C172.024 83.0884 171.928 83.0943 171.838 83.1208C171.747 83.1473 171.663 83.1936 171.593 83.2566C171.522 83.3195 171.467 83.3973 171.43 83.4845C169.336 86.7713 168.585 87.0024 169.798 88.2111C170.88 89.2841 171.598 90.2214 172.48 90.5179L172.585 90.5506C172.566 90.5556 172.546 90.5556 172.527 90.5506L177.64 96.6669C177.64 96.6669 181.33 99.8783 183.868 100.909C186.407 101.939 186.212 102.248 186.212 102.248C186.212 102.248 193.901 106.145 195.092 106.07C196.282 105.995 196.053 114.058 195.554 115.368C195.054 116.677 194.248 126.07 194.248 126.07C194.248 126.07 193.477 128.057 194.285 129.432C194.285 129.432 194.464 132.065 194.303 132.699C193.602 133.779 192.603 135.614 192.44 137.501C192.44 137.601 192.42 137.694 192.409 137.792C192.358 137.852 192.297 137.902 192.229 137.94L192.399 137.89C192.327 138.677 192.158 139.451 191.897 140.197C191.491 141.244 191.275 142.356 191.262 143.479V149.55L190.76 153.319C190.76 153.319 190.144 156.171 190.76 156.837C191.019 157.169 191.14 157.589 191.096 158.008C191.07 158.495 191.208 158.976 191.488 159.375C191.595 159.492 191.673 159.632 191.717 159.784C191.76 159.936 191.768 160.096 191.739 160.252C191.536 160.913 192.04 167.946 192.04 167.946C192.04 167.946 191.892 169.884 191.689 169.987C191.485 170.09 192.04 172.228 192.04 172.228C192.04 172.228 189.963 173.962 190.493 174.879L191.023 175.694L190.883 175.832L190.797 175.92C190.637 175.827 190.45 175.792 190.267 175.819C189.615 176.487 188.916 177.109 188.178 177.681C187.241 178.357 184.692 179.337 184.692 179.337L182.683 179.5H182.645C182.645 179.5 181.684 179.41 182.224 180.9C182.763 182.39 187.59 181.933 187.59 181.933L190.408 181.488C190.408 181.488 195.431 181.513 196.87 181.194C197.47 181.061 197.623 180.739 197.573 180.415L197.558 180.4C197.489 180.091 197.347 179.802 197.146 179.558C197.135 179.542 197.124 179.527 197.111 179.513L197.201 178.483C199.333 177.254 196.598 174.837 196.598 174.837C196.598 174.837 197.535 172.799 198.015 172.138C198.494 171.477 198.494 161.74 198.494 161.74C198.494 161.74 198.746 158.222 198.085 157.408C198.074 157.142 198.134 156.879 198.261 156.646C198.387 156.413 198.575 156.218 198.803 156.083C199.278 155.759 200.712 151.294 201.837 147.587L202.545 151.955C202.545 151.955 202.392 154.045 202.852 154.656C202.938 154.771 202.999 154.903 203.032 155.043C203.065 155.183 203.069 155.329 203.042 155.47C202.933 156.056 202.969 156.66 203.145 157.229C203.199 157.473 203.331 157.694 203.52 157.857C203.929 158.061 203.954 158.787 204.107 158.94C204.26 159.094 205.21 158.724 205.26 159.285C205.289 159.777 205.289 160.27 205.26 160.762L205.569 169.834C205.569 169.834 205.066 170.587 204.953 172.598C204.911 173.455 204.75 173.942 204.584 174.221C204.492 174.371 204.45 174.546 204.464 174.721C204.477 174.896 204.546 175.062 204.66 175.196L204.748 175.299L204.368 175.59C204.216 175.709 204.109 175.877 204.066 176.065C204.023 176.253 204.046 176.45 204.132 176.623C204.01 176.73 203.922 176.87 203.881 177.027C203.839 177.184 203.845 177.35 203.899 177.503C203.914 177.553 203.936 177.601 203.964 177.646C203.676 177.691 203.409 177.824 203.198 178.025C202.819 178.546 202.363 179.006 201.844 179.387C201.092 179.964 200.372 180.582 199.687 181.237C199.364 181.677 198.931 182.023 198.432 182.242C198.309 182.292 198.182 182.33 198.052 182.355C197.048 182.561 197.362 183.612 198.18 183.785C198.999 183.958 201.716 184.79 203.831 184.305C203.831 184.305 204.459 184.556 205.38 184.089C206.302 183.622 208.359 183.049 208.359 183.049C208.359 183.049 209.512 183.049 209.667 182.591C209.708 182.446 209.73 182.295 209.733 182.144L209.765 182.111L209.735 182.084C209.738 181.741 209.712 181.399 209.657 181.061C209.627 180.885 209.594 180.729 209.564 180.604C209.466 180.222 209.283 179.727 209.205 179.518C209.218 179.501 209.23 179.484 209.24 179.465C209.68 178.711 208.949 176.922 208.949 176.922C209.189 176.541 209.481 176.195 209.815 175.895C210.225 175.588 211.302 167.637 211.302 167.637C211.302 167.637 211.249 165.599 211.804 164.682C212.359 163.765 211.036 158.212 211.036 158.212C211.036 158.212 210.471 156.938 210.677 156.478C210.883 156.018 210.471 154.337 210.471 154.337V152.327C210.47 152.087 210.43 151.85 210.353 151.623C210.195 151.15 209.961 150.243 210.215 149.593C210.574 148.675 211.392 143.019 211.392 143.019C211.392 143.019 210.752 140.524 211.691 138.536C211.765 138.377 211.849 138.224 211.942 138.076C212.638 136.983 212.43 135.041 212.086 133.475C212.035 133.224 211.978 132.998 211.92 132.779C211.897 132.684 211.872 132.593 211.847 132.503L211.958 132.457C211.958 132.457 211.958 132.309 211.993 132.055C212.372 131.98 212.732 131.828 213.05 131.608C213.368 131.388 213.637 131.105 213.841 130.776C213.841 130.776 216.187 128.138 218.261 127.03C220.335 125.921 220.491 124.316 220.491 124.316C220.185 123.781 221.041 121.602 221.041 121.602L220.963 119.245ZM214.198 122.763L211.978 125.338V125.323C211.4 124.519 212.515 122.723 212.515 122.723L214.361 118.602C214.346 119.129 214.281 119.607 214.11 119.815C213.607 120.504 215.034 121.652 215.034 121.652C214.273 121.655 214.198 122.763 214.198 122.763Z" fill="url(#paint0_linear)"/>
<path d="M175.112 88.9926L173.899 91.3472C173.515 91.3143 173.136 91.235 172.771 91.111C172.193 90.9381 171.657 90.6445 171.201 90.2495C170.744 89.8544 170.376 89.367 170.122 88.8193C169.039 86.427 170.83 84.8816 171.664 84.4243C172.497 83.9669 173.273 83.4468 173.899 84.9469C174.291 85.9647 174.619 87.0063 174.88 88.0654C175.026 88.6157 175.112 88.9926 175.112 88.9926Z" fill="#CC818C"/>
<path d="M213.633 101.24L211.696 104.125C211.696 104.125 202.548 108.492 204.296 103.371C205.064 101.11 205.154 99.4587 205.016 98.3154C205.016 98.3028 205.016 98.2953 205.016 98.2827C204.835 96.8529 204.298 96.2322 204.298 96.2322C204.298 96.2322 213.216 91.6639 211.887 94.7873C211.616 95.4365 211.508 96.1423 211.573 96.8428C211.683 97.8519 212.01 98.825 212.533 99.6949C212.847 100.246 213.215 100.763 213.633 101.24Z" fill="#CC818C"/>
<path d="M210.847 158.385C210.847 158.385 212.163 163.913 211.601 164.815C211.038 165.718 211.099 167.753 211.099 167.753C211.099 167.753 210.036 175.653 209.632 175.955C209.3 176.249 209.01 176.587 208.771 176.96C208.771 176.96 209.494 178.749 209.059 179.488C208.992 179.6 208.891 179.688 208.771 179.739C208.093 180.026 205.586 178.754 204.16 177.98C204.045 177.917 203.947 177.828 203.874 177.719C203.801 177.61 203.756 177.485 203.742 177.355C203.727 177.225 203.745 177.093 203.792 176.971C203.839 176.849 203.916 176.74 204.014 176.653C203.928 176.482 203.905 176.286 203.947 176.1C203.989 175.913 204.094 175.746 204.245 175.628L204.622 175.337L204.534 175.234C204.421 175.1 204.353 174.935 204.34 174.761C204.326 174.587 204.368 174.413 204.459 174.264C204.622 173.99 204.78 173.51 204.823 172.653C204.926 170.678 205.431 169.919 205.431 169.919L205.127 160.903C205.155 160.414 205.155 159.924 205.127 159.435C205.077 158.88 204.14 159.247 203.989 159.094C203.838 158.94 203.811 158.222 203.406 158.018C203.22 157.854 203.092 157.635 203.04 157.392C202.861 156.824 202.826 156.219 202.937 155.633C202.963 155.493 202.96 155.348 202.927 155.209C202.895 155.07 202.834 154.939 202.749 154.824C202.294 154.216 202.445 152.143 202.445 152.143L201.746 147.801C200.634 151.485 199.22 155.922 198.751 156.244C198.525 156.379 198.34 156.572 198.216 156.804C198.091 157.035 198.031 157.296 198.042 157.558C198.7 158.37 198.447 161.865 198.447 161.865C198.447 161.865 198.447 171.535 197.972 172.196C197.497 172.857 196.578 174.889 196.578 174.889C196.578 174.889 199.29 177.304 197.156 178.523H197.133C194.956 179.739 190.453 176.347 190.453 176.347L190.923 175.877L191.061 175.739L190.528 174.945C190.006 174.033 192.055 172.311 192.055 172.311C192.055 172.311 191.508 170.183 191.709 170.082C191.91 169.982 192.055 168.057 192.055 168.057C192.055 168.057 191.553 161.069 191.759 160.41C191.786 160.256 191.778 160.096 191.735 159.945C191.691 159.794 191.613 159.655 191.508 159.538C191.231 159.142 191.095 158.664 191.121 158.182C191.165 157.765 191.045 157.348 190.787 157.018C190.179 156.36 190.787 153.525 190.787 153.525L191.289 149.776V143.823C191.296 142.674 191.511 141.536 191.925 140.463C192.232 139.594 192.418 138.687 192.477 137.767C192.643 135.847 193.675 133.983 194.368 132.92C194.735 132.357 195.009 132.02 195.009 132.02L211.202 131.387C211.202 131.387 211.453 132.108 211.724 133.111C211.779 133.329 211.834 133.561 211.887 133.802C212.226 135.36 212.43 137.29 211.744 138.375C211.651 138.522 211.567 138.675 211.493 138.833C210.566 140.808 211.199 143.288 211.199 143.288C211.199 143.288 210.39 148.907 210.036 149.821C209.785 150.467 210.016 151.369 210.174 151.832C210.248 152.058 210.287 152.294 210.287 152.533V154.535C210.287 154.535 210.694 156.206 210.491 156.664C210.287 157.121 210.847 158.385 210.847 158.385Z" fill="#444053"/>
<path opacity="0.1" d="M211.593 138.536C211.5 138.682 211.416 138.834 211.342 138.991L210.431 138.941C210.519 138.471 209.898 134.066 209.898 134.066L211.734 133.963C212.073 135.518 212.279 137.448 211.593 138.536Z" fill="white"/>
<path d="M211.744 138.383C211.651 138.53 211.567 138.683 211.493 138.84L210.581 138.787C210.669 138.32 210.049 133.912 210.049 133.912L211.885 133.809C212.226 135.367 212.43 137.297 211.744 138.383Z" fill="#444053"/>
<path opacity="0.05" d="M211.744 138.383C211.651 138.53 211.567 138.683 211.493 138.84L210.581 138.787C210.669 138.32 210.049 133.912 210.049 133.912L211.885 133.809C212.226 135.367 212.43 137.297 211.744 138.383Z" fill="white"/>
<path opacity="0.1" d="M209.062 179.498C208.995 179.61 208.894 179.698 208.773 179.749C208.095 180.036 205.589 178.764 204.162 177.99C203.984 177.892 203.849 177.731 203.783 177.538C204.597 177.39 205.129 178.292 205.129 178.292C205.265 178.207 205.416 178.15 205.574 178.124C205.732 178.098 205.894 178.104 206.049 178.142C206.205 178.18 206.352 178.248 206.48 178.343C206.609 178.439 206.718 178.559 206.799 178.696C207.495 179.722 208.987 179.289 208.987 179.289L209.062 179.498Z" fill="white"/>
<path d="M209.481 182.601C209.331 183.059 208.191 183.059 208.191 183.059C208.191 183.059 206.154 183.642 205.242 184.097C204.331 184.551 203.713 184.313 203.713 184.313C201.626 184.793 198.941 183.958 198.133 183.792C197.324 183.627 197.008 182.579 198.007 182.375C198.135 182.349 198.261 182.31 198.381 182.26C198.882 182.043 199.316 181.696 199.637 181.254C200.314 180.604 201.025 179.99 201.769 179.418C202.281 179.037 202.732 178.58 203.105 178.063C204.295 177.013 205.142 178.455 205.142 178.455C205.278 178.37 205.429 178.313 205.587 178.288C205.745 178.262 205.907 178.269 206.063 178.306C206.218 178.344 206.365 178.413 206.493 178.509C206.622 178.604 206.73 178.724 206.812 178.862C207.507 179.888 208.999 179.453 208.999 179.453C208.999 179.453 209.268 180.139 209.393 180.631C209.424 180.757 209.456 180.913 209.486 181.089C209.554 181.599 209.597 182.26 209.481 182.601Z" fill="#FF748F"/>
<path d="M206.001 179.4C206.077 179.4 206.139 179.338 206.139 179.262C206.139 179.185 206.077 179.124 206.001 179.124C205.924 179.124 205.863 179.185 205.863 179.262C205.863 179.338 205.924 179.4 206.001 179.4Z" fill="white"/>
<path d="M204.813 180.513C204.889 180.513 204.951 180.451 204.951 180.375C204.951 180.299 204.889 180.237 204.813 180.237C204.737 180.237 204.675 180.299 204.675 180.375C204.675 180.451 204.737 180.513 204.813 180.513Z" fill="white"/>
<path d="M203.605 181.513C203.681 181.513 203.743 181.451 203.743 181.375C203.743 181.299 203.681 181.237 203.605 181.237C203.529 181.237 203.467 181.299 203.467 181.375C203.467 181.451 203.529 181.513 203.605 181.513Z" fill="white"/>
<path d="M204.23 181.066C204.306 181.066 204.368 181.004 204.368 180.928C204.368 180.852 204.306 180.79 204.23 180.79C204.154 180.79 204.092 180.852 204.092 180.928C204.092 181.004 204.154 181.066 204.23 181.066Z" fill="white"/>
<path d="M205.433 179.923C205.51 179.923 205.571 179.861 205.571 179.784C205.571 179.708 205.51 179.646 205.433 179.646C205.357 179.646 205.295 179.708 205.295 179.784C205.295 179.861 205.357 179.923 205.433 179.923Z" fill="white"/>
<path d="M209.481 182.601C209.331 183.059 208.191 183.059 208.191 183.059C208.191 183.059 206.154 183.642 205.242 184.096C204.331 184.551 203.713 184.313 203.713 184.313C201.626 184.793 198.941 183.958 198.133 183.792C197.324 183.627 197.008 182.579 198.007 182.375C198.135 182.349 198.261 182.31 198.381 182.26C199.264 182.564 200.186 182.739 201.119 182.78C203.18 182.868 204.813 182.78 204.813 182.78L206.9 182.109C207.295 181.869 207.734 181.71 208.191 181.641C208.653 181.547 209.09 181.357 209.474 181.084C209.554 181.599 209.597 182.26 209.481 182.601Z" fill="#DCE6F2"/>
<path opacity="0.5" d="M204.288 183.911C204.172 183.911 204.056 183.9 203.941 183.878L203.972 183.73C204.398 183.795 204.835 183.734 205.227 183.554C205.413 183.481 205.599 183.393 205.78 183.302C205.961 183.212 206.214 183.099 206.44 183.016L206.646 182.946C206.759 182.905 206.875 182.868 206.985 182.82C207.048 182.795 207.111 182.765 207.171 182.735C207.319 182.657 207.476 182.597 207.638 182.556C207.721 182.541 207.805 182.53 207.889 182.524C207.967 182.518 208.044 182.509 208.12 182.496C208.272 182.457 208.42 182.403 208.56 182.333C208.71 182.255 208.868 182.196 209.032 182.157L209.142 182.139C209.261 182.136 209.376 182.094 209.469 182.018L209.582 182.121C209.467 182.223 209.321 182.282 209.167 182.29L209.062 182.307C208.91 182.345 208.762 182.4 208.622 182.471C208.472 182.546 208.314 182.604 208.15 182.644C208.068 182.66 207.984 182.671 207.899 182.674C207.82 182.68 207.741 182.69 207.663 182.704C207.512 182.743 207.367 182.8 207.229 182.873L207.038 182.961C206.922 183.008 206.802 183.049 206.686 183.089L206.485 183.159C206.264 183.24 206.048 183.343 205.837 183.441C205.627 183.539 205.466 183.617 205.275 183.692C204.962 183.825 204.628 183.9 204.288 183.911Z" fill="white"/>
<path opacity="0.1" d="M204.775 158.752C204.775 158.752 205.825 157.244 207.623 157.244C209.421 157.244 210.19 157.041 210.19 157.041C210.19 157.041 209.039 157.724 208.243 157.812C207.447 157.9 204.775 158.752 204.775 158.752Z" fill="white"/>
<path opacity="0.1" d="M205.383 159.106C205.383 159.106 206.332 158.448 206.875 158.423C207.417 158.398 207.879 158.347 207.879 158.347C207.625 158.526 207.343 158.663 207.045 158.752C206.601 158.878 205.383 159.106 205.383 159.106Z" fill="white"/>
<path opacity="0.1" d="M205.596 159.561C205.596 159.561 207.025 159.674 207.038 160.064L205.596 159.561Z" fill="white"/>
<path opacity="0.1" d="M192.269 138.202C192.344 138.214 193.622 136.872 193.71 136.342C193.78 136.007 193.98 135.712 194.265 135.523C194.265 135.523 195.089 135.852 194.356 136.862C193.622 137.873 192.269 138.202 192.269 138.202Z" fill="white"/>
<path opacity="0.1" d="M211.875 94.7822C211.583 95.4707 211.327 95.5361 211.372 96.1919C211.033 96.5513 210.643 96.8586 210.215 97.1041C209.311 97.6418 208.326 98.6947 207.201 98.6947C206.447 98.6952 205.7 98.5537 204.999 98.2776C204.818 96.8478 204.28 96.2271 204.28 96.2271C204.28 96.2271 213.201 91.6587 211.875 94.7822Z" fill="white"/>
<path d="M213.241 92.3524C213.241 93.5452 212.887 94.7112 212.225 95.7029C211.563 96.6947 210.622 97.4677 209.52 97.9242C208.419 98.3806 207.207 98.5001 206.038 98.2673C204.869 98.0346 203.795 97.4603 202.952 96.6168C202.109 95.7734 201.535 94.6988 201.302 93.5289C201.07 92.3591 201.189 91.1465 201.645 90.0445C202.102 88.9425 202.874 88.0006 203.865 87.3379C204.856 86.6752 206.022 86.3215 207.214 86.3215C208.812 86.3215 210.345 86.9569 211.476 88.0879C212.606 89.2189 213.241 90.7529 213.241 92.3524Z" fill="#CC818C"/>
<path opacity="0.1" d="M213.633 101.24L211.696 104.125C211.696 104.125 202.548 108.492 204.296 103.371C205.064 101.11 205.154 99.4587 205.016 98.3153H205.031C205.14 98.6942 205.201 99.0849 205.215 99.4788C205.242 100.268 205.262 101.265 207.224 101.595C210.488 102.142 212.231 100.102 212.538 99.7024C212.851 100.25 213.217 100.765 213.633 101.24Z" fill="white"/>
<path opacity="0.1" d="M175.112 88.9927L173.899 91.3472C173.515 91.3143 173.136 91.235 172.771 91.111L172.666 90.9854C173.168 91.1763 174.828 88.0227 174.828 88.0227L174.881 88.0654C175.026 88.6157 175.112 88.9927 175.112 88.9927Z" fill="white"/>
<path opacity="0.1" d="M211.724 133.118C207.816 134.817 194.301 133.37 194.301 133.37C194.341 133.226 194.364 133.077 194.368 132.927C194.735 132.364 195.009 132.028 195.009 132.028L211.202 131.395C211.202 131.395 211.465 132.116 211.724 133.118Z" fill="white"/>
<path d="M205.021 98.456L203.218 99.2274C202.946 99.2252 202.68 99.1452 202.452 98.997C202.224 98.8488 202.043 98.6384 201.93 98.3907C201.511 97.5187 200.031 98.3907 200.031 98.3907C200.031 98.3907 195.511 98.0489 193.843 98.8932C193.843 98.8932 191.149 97.7524 190.77 97.677C190.39 97.6016 189.82 97.2976 189.554 97.373C189.288 97.4483 188.949 96.8704 188.758 96.9181C188.567 96.9659 188.492 96.5387 187.884 96.3854C187.276 96.2321 187.05 96.4231 186.377 95.7396C185.704 95.0561 180.152 92.3598 180.152 92.3598L177.64 90.3093L174.983 88.1835C174.983 88.1835 173.313 91.3346 172.819 91.1436L177.866 97.2222C177.866 97.2222 181.51 100.411 184.017 101.436C186.523 102.461 186.332 102.766 186.332 102.766C186.332 102.766 193.924 106.64 195.099 106.565C196.274 106.49 196.053 114.493 195.551 115.785C195.049 117.076 194.263 126.419 194.263 126.419C194.263 126.419 193.509 128.394 194.301 129.761C194.301 129.761 194.489 132.573 194.301 133.066C194.301 133.066 207.899 134.52 211.759 132.799C211.759 132.799 212.329 126.494 211.759 125.698C211.189 124.901 212.292 123.125 212.292 123.125L214.72 117.694L220.642 111.731C220.642 111.731 221.551 106.756 217.49 103.567L214.795 101.172C214.795 101.172 213.289 99.8682 212.847 99.7853C212.405 99.7024 212.568 99.7853 212.568 99.7853C212.568 99.7853 210.81 102.351 207.204 101.743C205.25 101.414 205.23 100.416 205.195 99.6295C205.184 99.2328 205.126 98.8388 205.021 98.456Z" fill="#67647E"/>
<path opacity="0.1" d="M212.442 118.901C212.442 118.901 204.09 119.242 202.422 121.868C202.422 121.868 204.587 120.84 206.521 121.144C208.454 121.449 212.442 118.901 212.442 118.901Z" fill="white"/>
<path opacity="0.1" d="M203.218 128.052C203.218 128.052 207.166 128.319 208.002 127.482C208.838 126.645 208.841 126.153 208.841 126.153L203.218 128.052Z" fill="white"/>
<path opacity="0.1" d="M213.241 110.847C213.241 110.847 209.898 114.797 213.962 116.506L213.241 110.847Z" fill="white"/>
<path opacity="0.1" d="M193.464 103.215C193.464 103.215 194.68 105.696 195.287 105.859L193.464 103.215Z" fill="white"/>
<path opacity="0.1" d="M189.366 102.15C189.366 102.15 192.402 104.886 192.972 105.15C192.972 105.15 189.82 102.15 189.366 102.15Z" fill="white"/>
<path opacity="0.1" d="M201.473 99.5315C201.473 99.5315 198.55 103.899 200.448 106.567C200.448 106.557 199.386 103.404 201.473 99.5315Z" fill="white"/>
<path d="M208.841 132.611L207.947 133.452L207.821 133.568L206.787 134.548C206.714 134.603 206.641 134.659 206.566 134.709C202.354 137.724 201.51 133.141 201.51 133.141C201.51 133.141 199.652 134.357 199.386 133.37C199.12 132.382 203.713 130.977 204.409 131.053C204.469 131.059 204.531 131.059 204.592 131.053C204.924 130.998 205.243 130.884 205.536 130.719L205.74 130.61C205.973 130.479 206.201 130.335 206.42 130.181L208.841 132.611Z" fill="#CC818C"/>
<path opacity="0.1" d="M213.381 92.3523C213.384 93.3983 213.114 94.4269 212.599 95.3371C212.084 96.2473 211.341 97.0078 210.443 97.5438C210.359 97.4027 210.285 97.2558 210.222 97.1041C210.006 96.6015 209.873 96.0587 209.655 95.5536C209.416 95.0023 209.075 94.501 208.65 94.0761C208.578 93.9919 208.486 93.9278 208.381 93.8901C208.284 93.8767 208.184 93.8833 208.089 93.9097C207.994 93.936 207.906 93.9815 207.829 94.0434C207.573 94.2167 207.288 94.3419 206.988 94.4128C206.837 94.4473 206.681 94.4423 206.533 94.3983C206.385 94.3543 206.251 94.2727 206.144 94.1615C205.908 93.8801 205.94 93.468 206.008 93.1086C206.156 92.3221 206.403 91.5482 206.405 90.7491C206.408 89.95 206.101 89.0906 205.4 88.6936C204.788 88.3443 204.027 88.4423 203.346 88.2463C203.241 88.2187 203.138 88.1834 203.037 88.1407C203.874 87.2814 204.948 86.6914 206.122 86.446C207.295 86.2006 208.515 86.311 209.626 86.7632C210.736 87.2154 211.687 87.9887 212.356 88.9843C213.025 89.9799 213.382 91.1526 213.381 92.3523Z" fill="white"/>
<path d="M202.626 87.1758C202.518 87.2336 202.397 87.3391 202.43 87.4598C202.451 87.5173 202.489 87.5666 202.54 87.6005C202.821 87.8276 203.146 87.9944 203.494 88.0905C204.175 88.2764 204.938 88.1885 205.551 88.5378C206.244 88.9323 206.556 89.7942 206.556 90.5933C206.556 91.3924 206.305 92.1663 206.161 92.9503C206.094 93.3122 206.058 93.7243 206.295 94.0057C206.402 94.1163 206.536 94.1975 206.684 94.2414C206.831 94.2854 206.988 94.2908 207.138 94.257C207.439 94.1875 207.724 94.0631 207.98 93.8901C208.057 93.8279 208.146 93.782 208.241 93.7552C208.337 93.7284 208.436 93.7213 208.535 93.7344C208.638 93.7737 208.73 93.8375 208.803 93.9203C209.228 94.3459 209.569 94.8481 209.808 95.4004C210.029 95.9029 210.159 96.4432 210.375 96.9508C210.564 97.4685 210.917 97.9099 211.38 98.2072C211.862 98.4736 212.53 98.4585 212.902 98.0464C213.273 97.6343 213.243 97.0689 213.419 96.5739C213.721 95.712 214.562 95.1717 215.089 94.4279C215.679 93.5911 215.843 92.5407 216.003 91.5281C216.075 91.2092 216.08 90.879 216.018 90.5581C215.949 90.3457 215.86 90.1403 215.752 89.945C215.165 88.7287 215.177 87.1984 214.245 86.2285C213.542 85.4997 212.475 85.2786 211.47 85.153C210.466 85.0273 209.411 84.957 208.55 84.4267C208.308 84.244 208.042 84.0968 207.759 83.9895C207.615 83.9391 207.459 83.9406 207.317 83.9939C207.174 84.0472 207.055 84.1488 206.98 84.281C206.962 84.3583 206.927 84.4305 206.877 84.4921C206.832 84.5181 206.782 84.5332 206.73 84.5363C206.678 84.5393 206.626 84.5302 206.578 84.5097L205.242 84.1503L205.395 84.8238C204.91 84.8441 204.426 84.7584 203.977 84.5725C203.951 84.9544 204.381 85.2007 204.514 85.5575C204.562 85.7198 204.564 85.8922 204.52 86.0556C204.475 86.2189 204.386 86.3666 204.263 86.4823C203.778 86.9698 203.173 86.8768 202.626 87.1758Z" fill="#232323"/>
<path opacity="0.1" d="M197.211 177.92L197.156 178.526H197.133C194.956 179.742 190.453 176.349 190.453 176.349L190.923 175.88C191 175.965 191.058 176.066 191.093 176.175C191.129 176.285 191.141 176.401 191.129 176.515L192.048 176.566L193.148 177.754C193.148 177.754 196.124 178.098 196.93 177.907L197.211 177.92Z" fill="white"/>
<path d="M196.829 181.222C195.413 181.538 190.453 181.516 190.453 181.516L187.671 181.956C187.671 181.956 182.899 182.413 182.369 180.93C181.839 179.448 182.786 179.541 182.786 179.541H182.824L184.81 179.38C184.81 179.38 187.322 178.405 188.253 177.734C188.982 177.166 189.671 176.548 190.315 175.885C190.315 175.885 191.144 175.724 191.129 176.684L192.048 176.734L193.148 177.925C193.148 177.925 196.124 178.269 196.93 178.076H197.211L197.083 179.546L197.118 179.588C197.309 179.82 198.095 180.94 196.829 181.222Z" fill="#FF748F"/>
<path d="M191.694 177.676C191.77 177.676 191.832 177.614 191.832 177.538C191.832 177.462 191.77 177.4 191.694 177.4C191.617 177.4 191.556 177.462 191.556 177.538C191.556 177.614 191.617 177.676 191.694 177.676Z" fill="white"/>
<path d="M188.125 179.224C188.201 179.224 188.263 179.162 188.263 179.086C188.263 179.01 188.201 178.948 188.125 178.948C188.049 178.948 187.987 179.01 187.987 179.086C187.987 179.162 188.049 179.224 188.125 179.224Z" fill="white"/>
<path d="M186.287 179.782C186.363 179.782 186.425 179.72 186.425 179.644C186.425 179.567 186.363 179.505 186.287 179.505C186.211 179.505 186.149 179.567 186.149 179.644C186.149 179.72 186.211 179.782 186.287 179.782Z" fill="white"/>
<path d="M189.062 178.928C189.138 178.928 189.2 178.866 189.2 178.789C189.2 178.713 189.138 178.651 189.062 178.651C188.986 178.651 188.924 178.713 188.924 178.789C188.924 178.866 188.986 178.928 189.062 178.928Z" fill="white"/>
<path d="M187.204 179.503C187.28 179.503 187.342 179.441 187.342 179.365C187.342 179.288 187.28 179.227 187.204 179.227C187.127 179.227 187.065 179.288 187.065 179.365C187.065 179.441 187.127 179.503 187.204 179.503Z" fill="white"/>
<path d="M190.009 178.488C190.085 178.488 190.147 178.426 190.147 178.35C190.147 178.273 190.085 178.211 190.009 178.211C189.932 178.211 189.871 178.273 189.871 178.35C189.871 178.426 189.932 178.488 190.009 178.488Z" fill="white"/>
<path d="M190.945 178.081C191.022 178.081 191.084 178.019 191.084 177.943C191.084 177.866 191.022 177.804 190.945 177.804C190.869 177.804 190.807 177.866 190.807 177.943C190.807 178.019 190.869 178.081 190.945 178.081Z" fill="white"/>
<path d="M196.829 181.222C195.413 181.538 190.453 181.516 190.453 181.516L187.671 181.956C187.671 181.956 182.899 182.413 182.369 180.93C181.839 179.448 182.786 179.541 182.786 179.541H182.824C183.128 179.935 183.738 180.383 184.936 180.405L188.366 180.543L191.92 180.292C191.92 180.292 195.25 180.194 195.792 180.078C196.248 179.956 196.692 179.793 197.118 179.591C197.309 179.82 198.095 180.94 196.829 181.222Z" fill="#DCE6F2"/>
<path opacity="0.5" d="M187.939 181.621C187.75 181.624 187.56 181.6 187.377 181.551L187.417 181.405C187.885 181.506 188.371 181.484 188.828 181.342C188.997 181.297 189.162 181.249 189.331 181.199C189.635 181.103 189.944 181.025 190.257 180.965C190.763 180.9 191.275 180.884 191.784 180.92H191.892C193.414 181 194.939 180.932 196.448 180.717C196.806 180.692 197.147 180.555 197.422 180.325L197.53 180.433C197.232 180.686 196.862 180.838 196.473 180.867C194.954 181.084 193.419 181.152 191.887 181.071H191.777C191.274 181.036 190.769 181.051 190.27 181.116C189.963 181.173 189.66 181.25 189.363 181.345C189.195 181.395 189.027 181.445 188.861 181.488C188.56 181.57 188.251 181.615 187.939 181.621Z" fill="white"/>
<path opacity="0.1" d="M208.841 132.611L207.947 133.452L205.727 130.608C205.961 130.476 206.188 130.333 206.408 130.178L208.841 132.611Z" fill="white"/>
<path d="M218.906 109.304L220.664 111.734V114.28C220.664 114.28 221.46 116.976 220.664 119.672L220.75 122.027C220.75 122.027 219.903 124.19 220.207 124.723C220.207 124.723 220.056 126.319 218.007 127.419C215.958 128.52 213.633 131.128 213.633 131.128C213.633 131.128 212.759 132.799 210.406 132.42L208.165 133.37L205.586 130.065L209.077 128.166C209.077 128.166 210.292 126.535 211.013 126.61L213.974 123.152C213.974 123.152 214.049 122.052 214.808 122.052C214.808 122.052 213.404 120.913 213.896 120.23C214.388 119.546 213.974 116.506 213.974 116.506L218.906 109.304Z" fill="#67647E"/>
<path opacity="0.1" d="M215.642 120.381C215.642 120.381 219.627 120.305 220.119 121.331C220.612 122.356 216.845 119.81 215.642 120.381Z" fill="white"/>
<path opacity="0.1" d="M207.839 133.37C207.84 133.436 207.834 133.503 207.821 133.568C207.776 133.874 207.626 134.154 207.397 134.362C207.168 134.57 206.874 134.693 206.566 134.709H206.495C206.14 134.709 205.799 134.568 205.547 134.316C205.296 134.064 205.154 133.723 205.154 133.367C205.155 133.219 205.18 133.072 205.23 132.932C204.597 132.43 204.562 131.505 204.579 131.048C204.911 130.992 205.231 130.879 205.524 130.714C205.689 131.188 205.911 131.641 206.184 132.063C206.286 132.039 206.391 132.026 206.495 132.025C206.672 132.025 206.847 132.06 207.01 132.128C207.173 132.195 207.321 132.294 207.446 132.419C207.57 132.544 207.669 132.692 207.737 132.855C207.804 133.018 207.839 133.193 207.839 133.37Z" fill="white"/>
<path d="M205.644 130.412C205.644 130.412 204.745 130.616 204.745 130.779C204.745 130.942 204.542 132.425 205.529 133.04C206.516 133.656 206.415 132.191 206.415 132.191C206.415 132.191 205.566 130.889 205.644 130.412Z" fill="white"/>
<path d="M206.646 134.711C207.387 134.711 207.987 134.111 207.987 133.37C207.987 132.628 207.387 132.028 206.646 132.028C205.905 132.028 205.305 132.628 205.305 133.37C205.305 134.111 205.905 134.711 206.646 134.711Z" fill="#E4AAB4"/>
<path d="M206.646 134.521C207.281 134.521 207.796 134.005 207.796 133.37C207.796 132.734 207.281 132.219 206.646 132.219C206.011 132.219 205.496 132.734 205.496 133.37C205.496 134.005 206.011 134.521 206.646 134.521Z" fill="#DCE6F2"/>
<path opacity="0.1" d="M201.423 133.89C201.423 133.89 204.258 136.242 207.899 134.749V135.89C207.899 135.89 205.471 137.561 203.271 136.548C201.071 135.536 201.423 133.89 201.423 133.89Z" fill="white"/>
<path opacity="0.1" d="M201.423 133.586C201.423 133.586 204.258 135.94 207.899 134.445V135.586C207.899 135.586 205.471 137.257 203.271 136.244C201.071 135.232 201.423 133.586 201.423 133.586Z" fill="white"/>
<path d="M201.423 133.586C201.423 133.586 204.258 135.94 207.899 134.445V135.586C207.899 135.586 205.471 137.257 203.271 136.244C201.071 135.232 201.423 133.586 201.423 133.586Z" fill="#444053"/>
<path opacity="0.05" d="M201.498 133.586C201.498 133.586 204.333 135.94 207.977 134.445V135.586C207.977 135.586 205.549 137.257 203.346 136.244C201.144 135.232 201.498 133.586 201.498 133.586Z" fill="white"/>
<path opacity="0.1" d="M192.515 175.88C192.515 175.88 196.312 176.578 196.867 176.729C197.422 176.88 196.716 177.146 196.716 177.146C196.716 177.146 193.251 176.525 192.515 175.88Z" fill="white"/>
<path opacity="0.1" d="M192.427 173.867C192.49 173.867 195.009 173.158 195.551 171.944L192.427 173.867Z" fill="white"/>
<path opacity="0.1" d="M196.101 159.335C196.101 159.335 197.121 160.677 197.779 160.639C198.437 160.601 196.699 159.285 196.101 159.335Z" fill="white"/>
<path opacity="0.1" d="M196.666 161.571C196.666 161.571 197.096 162.519 197.728 162.215L196.666 161.571Z" fill="white"/>
<path opacity="0.05" d="M199.067 140.715L201.759 147.818C201.759 147.818 202.138 143.248 201.337 141.881C201.11 141.49 200.775 141.172 200.372 140.965C199.97 140.759 199.517 140.672 199.067 140.715Z" fill="white"/>
</g>
<defs>
<linearGradient id="paint0_linear" x1="195.27" y1="184.458" x2="195.27" y2="83.095" gradientUnits="userSpaceOnUse">
<stop stop-color="#808080" stop-opacity="0.25"/>
<stop offset="0.54" stop-color="#808080" stop-opacity="0.12"/>
<stop offset="1" stop-color="#808080" stop-opacity="0.1"/>
</linearGradient>
<clipPath id="clip0">
<rect width="258" height="197" fill="white"/>
</clipPath>
</defs>
</svg>
