<svg width="53" height="48" viewBox="0 0 53 48" fill="none" xmlns="http://www.w3.org/2000/svg">
<path d="M47.5483 38.5453C47.5483 28.0208 53 20.7934 53 15.7221C53 10.6508 50.0847 0 26.7549 0C3.425 0 0 14.3284 0 19.9064C0 46.0268 47.5483 57.1843 47.5483 38.5453Z" fill="#275262"/>
<path d="M38.5222 3.53235L39.5981 2.45645L41.7499 4.60824L40.674 5.68414L38.5222 3.53235Z" fill="#68F4FF"/>
<path d="M44.7079 9.71875L45.7838 8.64286L47.9356 10.7946L46.8597 11.8705L44.7079 9.71875Z" fill="#68F4FF"/>
<path d="M44.4418 4.61621L46.5936 2.46442L47.6695 3.54032L45.5177 5.69211L44.4418 4.61621Z" fill="#68F4FF"/>
<path d="M20.0341 35.6956V34.9348C20.0341 32.2888 19.0573 29.6794 17.2771 27.7212C14.5489 24.7191 13.1735 20.439 14.4196 15.9033C15.6642 11.3797 19.5031 7.89845 24.1179 7.04943C32.0985 5.58266 39.0534 11.6704 39.0534 19.3831C39.0534 22.5783 37.7662 25.4875 35.7471 27.7044C33.9563 29.6687 32.9673 32.231 32.9673 34.8892V35.6941H20.0341V35.6956Z" fill="#68F4FF"/>
<path d="M29.9242 41.021H23.0773C21.396 41.021 20.0342 39.6592 20.0342 37.9779V35.6956H32.9673V37.9779C32.9673 39.6592 31.6055 41.021 29.9242 41.021Z" fill="#F3F3F1"/>
<path d="M20.7006 27.721C17.9724 24.719 16.597 20.4389 17.8431 15.9032C19.0877 11.3796 22.9266 7.89832 27.5414 7.0493C27.7773 7.00517 28.0101 6.98996 28.2429 6.96105C26.9206 6.77694 25.5376 6.78911 24.118 7.0493C19.5031 7.89832 15.6643 11.3781 14.4196 15.9032C13.172 20.4389 14.5474 24.719 17.2771 27.721C19.0573 29.6793 20.0341 32.2887 20.0341 34.9347V35.6954H23.4576V34.9347C23.4576 32.2887 22.4808 29.6793 20.7006 27.721Z" fill="#68F4FF"/>
<path d="M23.4577 37.9779V35.6956H20.0342V37.9779C20.0342 39.6592 21.396 41.021 23.0773 41.021H26.5008C24.8194 41.021 23.4577 39.6592 23.4577 37.9779Z" fill="#D5DBE1"/>
<path d="M34.1085 35.6954H31.8262V34.889C31.8262 31.9372 32.9217 29.1117 34.9088 26.9374C36.0774 25.6547 36.9492 24.1393 37.4285 22.5538L39.6134 23.2157C39.0353 25.1252 37.993 26.945 36.5962 28.4772C34.991 30.23 34.1085 32.5063 34.1085 34.889V35.6954Z" fill="black"/>
<path d="M21.1752 35.6954H18.8929V34.9347C18.8929 32.5595 17.9967 30.2118 16.4356 28.4894C13.1826 24.9305 12.0444 20.2304 13.318 15.5989C14.6828 10.6569 18.8381 6.8591 23.9034 5.92335C27.9887 5.17779 32.1273 6.24744 35.2648 8.86146C38.3976 11.4724 40.1946 15.3082 40.1946 19.3845C40.1946 19.6097 40.187 19.8348 40.1443 20.06L37.9031 19.6234C37.9198 19.5442 37.9122 19.4651 37.9122 19.3845C37.9122 15.9884 36.415 12.7916 33.8025 10.6128C31.1901 8.4339 27.7346 7.54532 24.3172 8.16763C20.1071 8.94666 16.6532 12.1008 15.5197 16.2044C14.4591 20.0631 15.4086 23.9811 18.1245 26.9526C20.0934 29.1239 21.1768 31.957 21.1768 34.9347V35.6954H21.1752Z" fill="black"/>
<path d="M29.9243 42.162H23.0773C20.7691 42.162 18.8931 40.286 18.8931 37.9778V35.6955C18.8931 35.0656 19.4043 34.5543 20.0342 34.5543H32.9674C33.5973 34.5543 34.1085 35.0656 34.1085 35.6955V37.9778C34.1085 40.286 32.2325 42.162 29.9243 42.162ZM21.1754 36.8366V37.9778C21.1754 39.0261 22.029 39.8797 23.0773 39.8797H29.9243C30.9726 39.8797 31.8262 39.0261 31.8262 37.9778V36.8366H21.1754Z" fill="black"/>
<path d="M27.0713 25.4251H23.0773V23.1428H27.0713C27.5963 23.1428 28.0223 22.7168 28.0223 22.1918C28.0223 21.6669 27.5963 21.2409 27.0713 21.2409H25.9302C24.1469 21.2409 22.6969 19.7908 22.6969 18.0076C22.6969 16.2243 24.1469 14.7743 25.9302 14.7743H30.1144V17.0566H25.9302C25.4053 17.0566 24.9792 17.4826 24.9792 18.0076C24.9792 18.5325 25.4053 18.9585 25.9302 18.9585H27.0713C28.8546 18.9585 30.3046 20.4086 30.3046 22.1918C30.3046 23.9751 28.8546 25.4251 27.0713 25.4251Z" fill="black"/>
<path d="M25.3596 12.8722H27.6419V15.9153H25.3596V12.8722Z" fill="black"/>
<path d="M25.3596 24.2839H27.6419V27.327H25.3596V24.2839Z" fill="black"/>
<path d="M2.15601 39.8798H50.8455V42.1621H2.15601V39.8798Z" fill="black"/>
</svg>
